<svg xmlns="http://www.w3.org/2000/svg" viewBox="0 0 60 60" fill="none">
  <defs>
    <linearGradient id="g" x1="0" y1="0" x2="1" y2="1">
      <stop offset="0%" stopColor="#F97316" />
      <stop offset="100%" stopColor="#EA580C" />
    </linearGradient>
  </defs>
  <rect width="60" height="60" rx="14" fill="url(#g)" />
  <path d="M19,27 L19,43 C19,45.2 20.8,47 23,47 L37,47 C39.2,47 41,45.2 41,43 L41,27 Z" fill="white" />
  <path d="M19,27 C19,24 22,23 30,23 C38,23 41,24 41,27" fill="none" stroke="white" stroke-width="1.5" stroke-linecap="round" />
  <path d="M23,24 C23,16 25.5,13 28,13 C30.5,13 33,16 33,24" fill="none" stroke="white" stroke-width="3" stroke-linecap="round" />
  <path d="M37,24 C37,19 38.5,16 40,16 C41,16 41.5,17.5 41.5,20" fill="none" stroke="white" stroke-width="2.5" stroke-linecap="round" />
  <path d="M28,21 C28,18 31,16 34,16 C37,16 39,18 39,21" fill="none" stroke="white" stroke-width="2" stroke-linecap="round" opacity="0.5" />
  <circle cx="23" cy="34" r="2" fill="white" opacity="0.9" />
  <circle cx="28" cy="36" r="2" fill="white" opacity="0.7" />
  <circle cx="33" cy="38" r="2" fill="white" opacity="0.9" />
</svg>
