<?xml version="1.0" encoding="UTF-8" standalone="no" ?>
<!DOCTYPE svg PUBLIC "-//W3C//DTD SVG 1.1//EN" "http://www.w3.org/Graphics/SVG/1.1/DTD/svg11.dtd">
<svg xmlns="http://www.w3.org/2000/svg" xmlns:xlink="http://www.w3.org/1999/xlink" version="1.1" width="1280" height="1024" viewBox="0 0 1280 1024" xml:space="preserve">
<desc>Created with Fabric.js 5.3.0</desc>
<defs>
</defs>
<g transform="matrix(1 0 0 1 640 512)" id="background-logo"  >
<rect style="stroke: none; stroke-width: 0; stroke-dasharray: none; stroke-linecap: butt; stroke-dashoffset: 0; stroke-linejoin: miter; stroke-miterlimit: 4; fill: rgb(255,255,255); fill-opacity: 0; fill-rule: nonzero; opacity: 1;"  paint-order="stroke"  x="-640" y="-512" rx="0" ry="0" width="1280" height="1024" />
</g>
<g transform="matrix(1.9211538461538462 0 0 1.9211538461538462 611.8713259271371 400.28602219228503)" id="logo-logo"  >
<g style=""  paint-order="stroke"   >
		<g transform="matrix(0.21530969587511195 0 0 -0.21530969587511203 0 -25.970303567914698)"  >
<path style="stroke: none; stroke-width: 1; stroke-dasharray: none; stroke-linecap: butt; stroke-dashoffset: 0; stroke-linejoin: miter; stroke-miterlimit: 4; fill: rgb(255,255,255); fill-rule: nonzero; opacity: 1;"  paint-order="stroke"  transform=" translate(-586.6684953077347, -921.2075)" d="M 404.203 895.109 C 406.28099999999995 907.895 418.289 916.75 431.246 916.75 L 1118.06 916.75 C 1138.23 916.75 1156.79 927.742 1166.47 945.43 L 1166.47 945.43 C 1186.6200000000001 982.2149999999999 1160 1027.1499999999999 1118.06 1027.1499999999999 L 367.941 1027.1499999999999 C 353.371 1027.1499999999999 340.313 1036.1499999999999 335.121 1049.7699999999998 L 275.246 1206.9399999999998 C 265.383 1232.84 240.551 1249.9499999999998 212.83999999999997 1249.9499999999998 L 65.0195 1249.9499999999998 C 24.300799999999995 1249.9499999999998 -6.2773400000000095 1216.6499999999999 1.1054699999999968 1176.61 C 6.660159999999997 1146.4799999999998 32.6992 1125.4399999999998 62.375 1125.4399999999998 L 138.64499999999998 1125.4399999999998 C 153.17199999999997 1125.4399999999998 166.195 1116.4999999999998 171.41799999999998 1102.9499999999998 L 359.41 614.961 C 364.63300000000004 601.4060000000001 377.66 592.465 392.184 592.465 L 940.52 592.465 C 960.637 592.465 979.148 603.4340000000001 988.813 621.0740000000001 L 988.813 621.0740000000001 C 1008.91 657.7700000000001 982.359 702.59 940.52 702.59 L 496.777 702.59 C 483.82 702.59 471.813 711.445 469.734 724.23 C 467.082 740.523 479.59 754.605 495.387 754.605 L 1029.33 754.605 C 1049.4499999999998 754.605 1067.96 765.5740000000001 1077.62 783.219 L 1077.62 783.219 C 1097.7199999999998 819.9140000000001 1071.1699999999998 864.734 1029.33 864.734 L 429.855 864.734 C 414.059 864.734 401.555 878.813 404.20300000000003 895.109" stroke-linecap="round" />
</g>
		<g transform="matrix(0.21530969587511195 0 0 -0.21530969587511203 -22.608055330836237 78.87975464832908)"  >
<path style="stroke: none; stroke-width: 1; stroke-dasharray: none; stroke-linecap: butt; stroke-dashoffset: 0; stroke-linejoin: miter; stroke-miterlimit: 4; fill: rgb(255,255,255); fill-rule: nonzero; opacity: 1;"  paint-order="stroke"  transform=" translate(-481.66600000000005, -83.006)" d="M 481.664 166.012 C 435.82 166.012 398.66 128.84 398.66 83 C 398.66 37.1602 435.82000000000005 0 481.66400000000004 0 C 527.508 0 564.672 37.1602 564.672 83 C 564.672 128.84 527.508 166.012 481.66400000000004 166.012" stroke-linecap="round" />
</g>
		<g transform="matrix(0.21530969587511195 0 0 -0.21530969587511203 64.86904445778356 78.87975464832908)"  >
<path style="stroke: none; stroke-width: 1; stroke-dasharray: none; stroke-linecap: butt; stroke-dashoffset: 0; stroke-linejoin: miter; stroke-miterlimit: 4; fill: rgb(255,255,255); fill-rule: nonzero; opacity: 1;"  paint-order="stroke"  transform=" translate(-887.951, -83.006)" d="M 887.949 166.012 C 842.1089999999999 166.012 804.9449999999999 128.84 804.9449999999999 83 C 804.9449999999999 37.1602 842.1089999999999 0 887.949 0 C 933.793 0 970.957 37.1602 970.957 83 C 970.957 128.84 933.793 166.012 887.949 166.012" stroke-linecap="round" />
</g>
</g>
</g>
<g transform="matrix(1.9211538461538462 0 0 1.9211538461538462 640.4648697054527 683.7331342535447)" id="text-logo"  >
<g style=""  paint-order="stroke"   >
		<g transform="matrix(1 0 0 1 -5.684342e-14 0)" id="text-logo-path-0"  >
<path style="stroke: none; stroke-width: 0; stroke-dasharray: none; stroke-linecap: butt; stroke-dashoffset: 0; stroke-linejoin: miter; stroke-miterlimit: 4; fill: rgb(255,255,255); fill-rule: nonzero; opacity: 1;"  paint-order="stroke"  transform=" translate(-166.1272118739753, 18.02)" d="M 12.56 0.37 C 19.72 0.37 24.75 -3.29 24.75 -10.76 C 24.75 -15.9 22.21 -18.71 14.2 -23.21 C 12.35 -24.27 11.29 -25.49 11.29 -26.66 C 11.34 -27.88 12.3 -28.62 13.89 -28.62 C 15.16 -28.62 16.22 -28.04 17.17 -27.19 C 19.34 -25.28 20.46 -25.28 22.21 -26.98 L 23.11 -27.88 C 25.12 -29.84 25.18 -31.59 23.27 -33.18 C 20.56 -35.4 17.17 -36.46 13.46 -36.46 C 7 -36.46 2.38 -33.34 2.38 -26.5 C 2.38 -21.31 5.04 -18.07 12.24 -14.15 C 14.95 -12.67 15.85 -11.87 15.85 -10.28 C 15.85 -8.48 14.84 -7.47 13.09 -7.47 C 11.34 -7.47 9.43 -8.06 7.79 -8.96 C 5.25 -10.39 4.19 -10.23 2.81 -8.21 L 2.07 -7.15 C 0.48 -4.82 0.74 -3.13 2.97 -1.96 C 5.88 -0.37 9.54 0.37 12.56 0.37 Z M 46 0.42 C 57.08 0.42 64.45 -6.94 64.45 -18.02 C 64.45 -29.1 57.08 -36.46 46 -36.46 C 34.93 -36.46 27.56 -29.1 27.56 -18.02 C 27.56 -6.94 34.93 0.42 46 0.42 Z M 46 -8.27 C 40.76 -8.27 37.31 -12.14 37.31 -18.07 C 37.31 -23.9 40.76 -27.77 46 -27.77 C 51.25 -27.77 54.7 -23.9 54.7 -18.07 C 54.7 -12.14 51.25 -8.27 46 -8.27 Z M 92.54 0 L 96.41 0 C 99 0 99.48 -0.79 98 -2.97 L 86.87 -18.92 L 96.88 -33.07 C 98.42 -35.19 97.94 -36.04 95.35 -36.04 L 92.22 -36.04 C 89.62 -36.04 88.03 -35.14 86.6 -32.97 L 78.17 -20.03 L 78.17 -32.38 C 78.17 -35.03 77.17 -36.04 74.52 -36.04 L 72.19 -36.04 C 69.54 -36.04 68.53 -35.03 68.53 -32.38 L 68.53 -3.66 C 68.53 -1.01 69.54 0 72.19 0 L 74.52 0 C 77.17 0 78.17 -1.01 78.17 -3.66 L 78.17 -13.67 L 78.6 -14.31 L 86.76 -2.97 C 88.3 -0.85 89.94 0 92.54 0 Z M 116.97 0.42 C 128.05 0.42 135.41 -6.94 135.41 -18.02 C 135.41 -29.1 128.05 -36.46 116.97 -36.46 C 105.89 -36.46 98.53 -29.1 98.53 -18.02 C 98.53 -6.94 105.89 0.42 116.97 0.42 Z M 116.97 -8.27 C 111.72 -8.27 108.28 -12.14 108.28 -18.07 C 108.28 -23.9 111.72 -27.77 116.97 -27.77 C 122.22 -27.77 125.66 -23.9 125.66 -18.07 C 125.66 -12.14 122.22 -8.27 116.97 -8.27 Z M 143.15 0 L 155.18 0 C 165.04 0 171.61 -7.15 171.61 -18.02 C 171.61 -28.88 164.94 -36.04 154.97 -36.04 L 143.15 -36.04 C 140.5 -36.04 139.5 -35.03 139.5 -32.38 L 139.5 -3.66 C 139.5 -1.01 140.5 0 143.15 0 Z M 149.14 -8.59 L 149.14 -27.45 L 154.28 -27.45 C 158.84 -27.45 161.86 -23.8 161.86 -18.02 C 161.86 -12.24 158.79 -8.59 154.12 -8.59 Z M 179.35 0 L 181.68 0 C 184.33 0 185.34 -1.01 185.34 -3.66 L 185.34 -32.38 C 185.34 -35.03 184.33 -36.04 181.68 -36.04 L 179.35 -36.04 C 176.7 -36.04 175.69 -35.03 175.69 -32.38 L 175.69 -3.66 C 175.69 -1.01 176.7 0 179.35 0 Z M 208.08 0.42 C 213.64 0.42 218.25 -1.48 221.43 -4.82 C 223.02 -6.47 223.61 -8.32 223.61 -11.39 L 223.61 -16.91 C 223.61 -19.5 222.55 -20.56 219.95 -20.56 L 209.46 -20.56 C 206.86 -20.56 205.8 -19.5 205.8 -16.91 L 205.8 -16.16 C 205.8 -13.57 206.86 -12.51 209.46 -12.51 L 214.44 -12.51 L 214.44 -10.65 C 212.85 -9.12 210.52 -8.27 207.76 -8.27 C 202.57 -8.27 199.17 -12.14 199.17 -18.07 C 199.17 -23.9 202.62 -27.77 207.87 -27.77 C 210.46 -27.77 212.53 -26.66 214.23 -25.12 C 216.29 -23.21 217.51 -23.16 219.37 -24.75 L 220.85 -25.97 C 222.97 -27.77 223.13 -29.41 221.38 -31.22 C 218.15 -34.56 213.48 -36.46 207.87 -36.46 C 196.79 -36.46 189.42 -29.1 189.42 -18.02 C 189.42 -6.94 196.84 0.42 208.08 0.42 Z M 231.98 0 L 234.31 0 C 236.96 0 237.97 -1.01 237.97 -3.66 L 237.97 -32.38 C 237.97 -35.03 236.96 -36.04 234.31 -36.04 L 231.98 -36.04 C 229.33 -36.04 228.32 -35.03 228.32 -32.38 L 228.32 -3.66 C 228.32 -1.01 229.33 0 231.98 0 Z M 255.94 0 L 258.27 0 C 260.92 0 261.93 -1.01 261.93 -3.66 L 261.93 -27.35 L 268.92 -27.35 C 271.57 -27.35 272.58 -28.36 272.58 -31 L 272.58 -32.38 C 272.58 -35.03 271.57 -36.04 268.92 -36.04 L 245.28 -36.04 C 242.63 -36.04 241.63 -35.03 241.63 -32.38 L 241.63 -31 C 241.63 -28.36 242.63 -27.35 245.28 -27.35 L 252.28 -27.35 L 252.28 -3.66 C 252.28 -1.01 253.29 0 255.94 0 Z M 272.26 0 L 275.55 0 C 277.83 0 278.99 -0.85 279.68 -3.02 L 281.27 -7.9 L 293.04 -7.9 L 294.63 -3.02 C 295.32 -0.85 296.48 0 298.76 0 L 302.05 0 C 304.33 0 304.96 -0.85 304.22 -3.02 L 294.04 -33.02 C 293.3 -35.19 292.14 -36.04 289.86 -36.04 L 284.45 -36.04 C 282.17 -36.04 281.01 -35.19 280.26 -33.02 L 270.09 -3.02 C 269.35 -0.85 269.98 0 272.26 0 Z M 283.81 -15.74 L 287.15 -26.13 L 290.49 -15.74 Z M 311.85 0 L 327.54 0 C 330.19 0 331.2 -1.01 331.2 -3.66 L 331.2 -5.04 C 331.2 -7.68 330.19 -8.69 327.54 -8.69 L 317.84 -8.69 L 317.84 -32.38 C 317.84 -35.03 316.83 -36.04 314.18 -36.04 L 311.85 -36.04 C 309.2 -36.04 308.19 -35.03 308.19 -32.38 L 308.19 -3.66 C 308.19 -1.01 309.2 0 311.85 0 Z" stroke-linecap="round" />
</g>
</g>
</g>
<g transform="matrix(1.9211538461538462 0 0 1.9211538461538462 639.902501442308 776.4869482807231)" id="tagline-01cfea79-8381-4d7f-941a-790ce0b90783-logo"  >
<g style=""  paint-order="stroke"   >
		<g transform="matrix(1 0 0 1 0 0)" id="tagline-01cfea79-8381-4d7f-941a-790ce0b90783-logo-path-0"  >
<path style="stroke: none; stroke-width: 0; stroke-dasharray: none; stroke-linecap: butt; stroke-dashoffset: 0; stroke-linejoin: miter; stroke-miterlimit: 4; fill: rgb(255,255,255); fill-rule: nonzero; opacity: 1;"  paint-order="stroke"  transform=" translate(-262.64, 10.065)" d="M 21.58 -1.04 L 21.58 -18.79 C 21.58 -20.39 19.46 -21 18.62 -19.63 L 12.12 -9.51 C 11.75 -8.9 11.11 -8.9 10.73 -9.51 L 4.23 -19.63 C 3.39 -21 1.28 -20.39 1.28 -18.79 L 1.28 -1.04 C 1.28 -0.41 1.8 0.12 2.44 0.12 C 3.07 0.12 3.6 -0.41 3.6 -1.04 L 3.6 -15.02 C 3.6 -15.75 3.92 -15.83 4.29 -15.23 L 10.18 -6.06 C 10.76 -5.1 12.09 -5.1 12.67 -6.06 L 18.56 -15.23 C 18.94 -15.83 19.26 -15.75 19.26 -15.02 L 19.26 -1.04 C 19.26 -0.41 19.78 0.12 20.42 0.12 C 21.05 0.12 21.58 -0.41 21.58 -1.04 Z M 2.26 -18.42 L 2.26 -18.39 Z M 20.59 -18.39 L 20.59 -18.42 Z M 45.56 -2.18 C 41.15 -2.18 37.56 -5.77 37.56 -10.18 C 37.56 -14.53 41.15 -18.13 45.56 -18.13 C 49.94 -18.13 53.53 -14.53 53.53 -10.18 C 53.53 -5.77 49.94 -2.18 45.56 -2.18 Z M 45.56 0.15 C 51.21 0.15 55.85 -4.5 55.85 -10.18 C 55.85 -15.81 51.21 -20.45 45.56 -20.45 C 39.88 -20.45 35.24 -15.81 35.24 -10.18 C 35.24 -4.5 39.88 0.15 45.56 0.15 Z M 75.86 -2.32 L 73.14 -2.32 C 72.41 -2.32 71.83 -2.9 71.83 -3.63 L 71.83 -16.68 C 71.83 -17.4 72.41 -17.98 73.14 -17.98 L 75.86 -17.98 C 80.3 -17.98 83.69 -14.59 83.69 -10.18 C 83.69 -5.71 80.3 -2.32 75.86 -2.32 Z M 71.11 0 L 75.86 0 C 81.43 0 86.01 -4.58 86.01 -10.18 C 86.01 -15.72 81.43 -20.3 75.86 -20.3 L 71.11 -20.3 C 70.24 -20.3 69.51 -19.57 69.51 -18.71 L 69.51 -1.59 C 69.51 -0.73 70.24 0 71.11 0 Z M 111.68 -2.32 L 103.3 -2.32 C 102.57 -2.32 101.99 -2.9 101.99 -3.63 L 101.99 -7.69 C 101.99 -8.41 102.57 -8.99 103.3 -8.99 L 109.65 -8.99 C 110.29 -8.99 110.81 -9.51 110.81 -10.15 C 110.81 -10.79 110.29 -11.31 109.65 -11.31 L 103.3 -11.31 C 102.57 -11.31 101.99 -11.89 101.99 -12.62 L 101.99 -16.68 C 101.99 -17.4 102.57 -17.98 103.3 -17.98 L 111.68 -17.98 C 112.32 -17.98 112.84 -18.5 112.84 -19.14 C 112.84 -19.78 112.32 -20.3 111.68 -20.3 L 101.27 -20.3 C 100.4 -20.3 99.67 -19.57 99.67 -18.71 L 99.67 -1.59 C 99.67 -0.73 100.4 0 101.27 0 L 111.68 0 C 112.32 0 112.84 -0.52 112.84 -1.16 C 112.84 -1.8 112.32 -2.32 111.68 -2.32 Z M 128.82 -1.04 L 128.82 -4.9 C 128.82 -5.63 129.4 -6.21 130.12 -6.21 L 132.07 -6.21 C 132.79 -6.21 133.72 -5.74 134.15 -5.16 L 138.04 -0.12 C 138.24 0.17 138.56 0.32 138.94 0.32 C 139.55 0.32 140.1 -0.17 140.1 -0.84 C 140.1 -1.07 140.01 -1.33 139.87 -1.54 L 136.76 -5.57 C 136.33 -6.15 136.5 -6.84 137.17 -7.16 C 139.29 -8.38 140.74 -10.67 140.74 -13.25 C 140.74 -17.08 137.52 -20.3 133.69 -20.3 L 128.09 -20.3 C 127.22 -20.3 126.5 -19.57 126.5 -18.71 L 126.5 -1.04 C 126.5 -0.41 127.02 0.12 127.66 0.12 C 128.3 0.12 128.82 -0.41 128.82 -1.04 Z M 128.82 -9.83 L 128.82 -16.68 C 128.82 -17.4 129.4 -17.98 130.12 -17.98 L 133.69 -17.98 C 136.39 -17.98 138.42 -15.95 138.42 -13.25 C 138.42 -10.56 136.39 -8.53 133.69 -8.53 L 130.12 -8.53 C 129.4 -8.53 128.82 -9.11 128.82 -9.83 Z M 156.72 -1.04 L 156.72 -15.2 C 156.72 -15.92 157.03 -16.01 157.44 -15.43 L 167.36 -0.67 C 168.2 0.67 170.35 0.06 170.35 -1.59 L 170.35 -19.26 C 170.35 -19.89 169.82 -20.42 169.19 -20.42 C 168.55 -20.42 168.03 -19.89 168.03 -19.26 L 168.03 -5.1 C 168.03 -4.38 167.71 -4.29 167.3 -4.87 L 157.38 -19.63 C 156.54 -20.97 154.4 -20.36 154.4 -18.71 L 154.4 -1.04 C 154.4 -0.41 154.92 0.12 155.56 0.12 C 156.19 0.12 156.72 -0.41 156.72 -1.04 Z M 155.47 -18.36 L 155.5 -18.33 Z M 169.24 -1.97 L 169.27 -1.94 Z M 221.21 -1.04 L 221.21 -18.79 C 221.21 -20.39 219.1 -21 218.25 -19.63 L 211.76 -9.51 C 211.38 -8.9 210.74 -8.9 210.37 -9.51 L 203.87 -19.63 C 203.03 -21 200.91 -20.39 200.91 -18.79 L 200.91 -1.04 C 200.91 -0.41 201.43 0.12 202.07 0.12 C 202.71 0.12 203.23 -0.41 203.23 -1.04 L 203.23 -15.02 C 203.23 -15.75 203.55 -15.83 203.93 -15.23 L 209.82 -6.06 C 210.4 -5.1 211.73 -5.1 212.31 -6.06 L 218.2 -15.23 C 218.57 -15.83 218.89 -15.75 218.89 -15.02 L 218.89 -1.04 C 218.89 -0.41 219.41 0.12 220.05 0.12 C 220.69 0.12 221.21 -0.41 221.21 -1.04 Z M 201.9 -18.42 L 201.9 -18.39 Z M 220.23 -18.39 L 220.23 -18.42 Z M 252.82 -1.42 L 245.54 -19.29 C 244.93 -20.82 242.85 -20.82 242.24 -19.29 L 234.96 -1.42 C 234.9 -1.31 234.87 -1.13 234.87 -0.96 C 234.87 -0.35 235.36 0.2 236.03 0.2 C 236.47 0.2 236.9 -0.09 237.08 -0.49 L 238.15 -3.13 C 238.41 -3.8 239.22 -4.35 239.95 -4.35 L 247.83 -4.35 C 248.56 -4.35 249.37 -3.8 249.63 -3.13 L 250.71 -0.49 C 250.88 -0.09 251.29 0.2 251.75 0.2 C 252.39 0.2 252.91 -0.32 252.91 -0.96 C 252.91 -1.1 252.88 -1.28 252.82 -1.42 Z M 240.09 -7.89 L 243.4 -15.98 C 243.66 -16.65 244.12 -16.65 244.38 -15.98 L 247.69 -7.89 C 247.95 -7.22 247.6 -6.67 246.88 -6.67 L 240.9 -6.67 C 240.18 -6.67 239.83 -7.22 240.09 -7.89 Z M 268.89 -1.04 L 268.89 -4.9 C 268.89 -5.63 269.47 -6.21 270.19 -6.21 L 272.14 -6.21 C 272.86 -6.21 273.79 -5.74 274.22 -5.16 L 278.11 -0.12 C 278.31 0.17 278.63 0.32 279.01 0.32 C 279.62 0.32 280.17 -0.17 280.17 -0.84 C 280.17 -1.07 280.08 -1.33 279.94 -1.54 L 276.83 -5.57 C 276.4 -6.15 276.57 -6.84 277.24 -7.16 C 279.36 -8.38 280.81 -10.67 280.81 -13.25 C 280.81 -17.08 277.59 -20.3 273.76 -20.3 L 268.16 -20.3 C 267.29 -20.3 266.57 -19.57 266.57 -18.71 L 266.57 -1.04 C 266.57 -0.41 267.09 0.12 267.73 0.12 C 268.37 0.12 268.89 -0.41 268.89 -1.04 Z M 268.89 -9.83 L 268.89 -16.68 C 268.89 -17.4 269.47 -17.98 270.19 -17.98 L 273.76 -17.98 C 276.46 -17.98 278.49 -15.95 278.49 -13.25 C 278.49 -10.56 276.46 -8.53 273.76 -8.53 L 270.19 -8.53 C 269.47 -8.53 268.89 -9.11 268.89 -9.83 Z M 296.79 -1.04 L 296.79 -4.55 C 296.79 -5.28 297.19 -6.26 297.71 -6.79 L 298.5 -7.57 C 299.02 -8.09 299.83 -8.09 300.35 -7.57 L 307.69 -0.2 C 307.89 0 308.21 0.15 308.53 0.15 C 309.14 0.15 309.69 -0.38 309.69 -1.02 C 309.69 -1.33 309.55 -1.65 309.11 -2.09 L 302.01 -9.22 C 301.48 -9.74 301.48 -10.56 302.01 -11.08 L 309.34 -18.47 C 309.55 -18.68 309.69 -18.97 309.69 -19.29 C 309.69 -19.92 309.17 -20.45 308.53 -20.45 C 308.24 -20.45 307.92 -20.33 307.72 -20.13 L 297.71 -10.06 C 297.19 -9.54 296.79 -9.71 296.79 -10.44 L 296.79 -19.26 C 296.79 -19.89 296.26 -20.42 295.63 -20.42 C 294.99 -20.42 294.47 -19.89 294.47 -19.26 L 294.47 -1.04 C 294.47 -0.41 294.99 0.12 295.63 0.12 C 296.26 0.12 296.79 -0.41 296.79 -1.04 Z M 335.36 -2.32 L 326.98 -2.32 C 326.25 -2.32 325.67 -2.9 325.67 -3.63 L 325.67 -7.69 C 325.67 -8.41 326.25 -8.99 326.98 -8.99 L 333.33 -8.99 C 333.96 -8.99 334.49 -9.51 334.49 -10.15 C 334.49 -10.79 333.96 -11.31 333.33 -11.31 L 326.98 -11.31 C 326.25 -11.31 325.67 -11.89 325.67 -12.62 L 325.67 -16.68 C 325.67 -17.4 326.25 -17.98 326.98 -17.98 L 335.36 -17.98 C 335.99 -17.98 336.52 -18.5 336.52 -19.14 C 336.52 -19.78 335.99 -20.3 335.36 -20.3 L 324.95 -20.3 C 324.08 -20.3 323.35 -19.57 323.35 -18.71 L 323.35 -1.59 C 323.35 -0.73 324.08 0 324.95 0 L 335.36 0 C 335.99 0 336.52 -0.52 336.52 -1.16 C 336.52 -1.8 335.99 -2.32 335.36 -2.32 Z M 358.85 -1.04 L 358.85 -16.68 C 358.85 -17.4 359.43 -17.98 360.15 -17.98 L 364.04 -17.98 C 364.68 -17.98 365.2 -18.5 365.2 -19.14 C 365.2 -19.78 364.68 -20.3 364.04 -20.3 L 351.34 -20.3 C 350.7 -20.3 350.18 -19.78 350.18 -19.14 C 350.18 -18.5 350.7 -17.98 351.34 -17.98 L 355.22 -17.98 C 355.95 -17.98 356.53 -17.4 356.53 -16.68 L 356.53 -1.04 C 356.53 -0.41 357.05 0.12 357.69 0.12 C 358.32 0.12 358.85 -0.41 358.85 -1.04 Z M 398.08 -1.04 L 398.08 -4.9 C 398.08 -5.63 398.66 -6.21 399.39 -6.21 L 402.96 -6.21 C 406.78 -6.21 410 -9.43 410 -13.25 C 410 -17.08 406.78 -20.3 402.96 -20.3 L 397.36 -20.3 C 396.49 -20.3 395.76 -19.57 395.76 -18.71 L 395.76 -1.04 C 395.76 -0.41 396.29 0.12 396.92 0.12 C 397.56 0.12 398.08 -0.41 398.08 -1.04 Z M 398.08 -9.83 L 398.08 -16.68 C 398.08 -17.4 398.66 -17.98 399.39 -17.98 L 402.96 -17.98 C 405.65 -17.98 407.68 -15.95 407.68 -13.25 C 407.68 -10.56 405.65 -8.53 402.96 -8.53 L 399.39 -8.53 C 398.66 -8.53 398.08 -9.11 398.08 -9.83 Z M 435.67 -2.32 L 427.29 -2.32 C 426.56 -2.32 425.98 -2.9 425.98 -3.63 L 425.98 -19.26 C 425.98 -19.89 425.46 -20.42 424.82 -20.42 C 424.18 -20.42 423.66 -19.89 423.66 -19.26 L 423.66 -1.59 C 423.66 -0.73 424.39 0 425.26 0 L 435.67 0 C 436.31 0 436.83 -0.52 436.83 -1.16 C 436.83 -1.8 436.31 -2.32 435.67 -2.32 Z M 468.44 -1.42 L 461.16 -19.29 C 460.55 -20.82 458.46 -20.82 457.85 -19.29 L 450.57 -1.42 C 450.52 -1.31 450.49 -1.13 450.49 -0.96 C 450.49 -0.35 450.98 0.2 451.65 0.2 C 452.08 0.2 452.52 -0.09 452.69 -0.49 L 453.76 -3.13 C 454.02 -3.8 454.84 -4.35 455.56 -4.35 L 463.45 -4.35 C 464.17 -4.35 464.99 -3.8 465.25 -3.13 L 466.32 -0.49 C 466.49 -0.09 466.9 0.2 467.36 0.2 C 468 0.2 468.52 -0.32 468.52 -0.96 C 468.52 -1.1 468.5 -1.28 468.44 -1.42 Z M 455.71 -7.89 L 459.01 -15.98 C 459.27 -16.65 459.74 -16.65 460 -15.98 L 463.3 -7.89 C 463.57 -7.22 463.22 -6.67 462.49 -6.67 L 456.52 -6.67 C 455.79 -6.67 455.45 -7.22 455.71 -7.89 Z M 495.29 -3.83 C 493.93 -2.78 492.3 -2.18 490.48 -2.18 C 486.07 -2.18 482.47 -5.77 482.47 -10.18 C 482.47 -14.53 486.07 -18.13 490.48 -18.13 C 492.28 -18.13 493.96 -17.49 495.29 -16.47 C 495.47 -16.36 495.73 -16.24 496.02 -16.24 C 496.63 -16.24 497.18 -16.76 497.18 -17.4 C 497.18 -17.75 496.97 -18.13 496.71 -18.33 C 494.94 -19.66 492.8 -20.45 490.48 -20.45 C 484.79 -20.45 480.15 -15.81 480.15 -10.18 C 480.15 -4.5 484.79 0.15 490.48 0.15 C 492.83 0.15 495 -0.67 496.71 -1.97 C 496.97 -2.18 497.18 -2.52 497.18 -2.9 C 497.18 -3.51 496.65 -4.06 496.02 -4.06 C 495.76 -4.06 495.49 -3.97 495.29 -3.83 Z M 522.84 -2.32 L 514.46 -2.32 C 513.74 -2.32 513.16 -2.9 513.16 -3.63 L 513.16 -7.69 C 513.16 -8.41 513.74 -8.99 514.46 -8.99 L 520.81 -8.99 C 521.45 -8.99 521.97 -9.51 521.97 -10.15 C 521.97 -10.79 521.45 -11.31 520.81 -11.31 L 514.46 -11.31 C 513.74 -11.31 513.16 -11.89 513.16 -12.62 L 513.16 -16.68 C 513.16 -17.4 513.74 -17.98 514.46 -17.98 L 522.84 -17.98 C 523.48 -17.98 524 -18.5 524 -19.14 C 524 -19.78 523.48 -20.3 522.84 -20.3 L 512.43 -20.3 C 511.56 -20.3 510.84 -19.57 510.84 -18.71 L 510.84 -1.59 C 510.84 -0.73 511.56 0 512.43 0 L 522.84 0 C 523.48 0 524 -0.52 524 -1.16 C 524 -1.8 523.48 -2.32 522.84 -2.32 Z" stroke-linecap="round" />
</g>
</g>
</g>
</svg>