<svg xmlns="http://www.w3.org/2000/svg" viewBox="0 0 200 50" fill="none">
  <defs>
    <linearGradient id="sokoGrad" x1="0%" y1="0%" x2="100%" y2="100%">
      <stop offset="0%" stop-color="#2563EB"/>
      <stop offset="100%" stop-color="#1D4ED8"/>
    </linearGradient>
  </defs>
  <rect x="2" y="8" width="34" height="34" rx="8" fill="url(#sokoGrad)"/>
  <path d="M12 28V16a3 3 0 013-3h0a3 3 0 013 3v12a3 3 0 01-3 3h0a3 3 0 01-3-3z" fill="white" opacity="0.9"/>
  <path d="M21 24V12a3 3 0 013-3h0a3 3 0 013 3v12a3 3 0 01-3 3h0a3 3 0 01-3-3z" fill="white" opacity="0.7"/>
  <path d="M10 28h20v2a2 2 0 01-2 2H12a2 2 0 01-2-2v-2z" fill="white" opacity="0.5"/>
  <text x="44" y="32" font-family="system-ui, -apple-system, sans-serif" font-size="20" font-weight="700" fill="#0F172A">Soko</text>
  <text x="90" y="32" font-family="system-ui, -apple-system, sans-serif" font-size="20" font-weight="300" fill="#2563EB">Digital</text>
</svg>
